<?xml version="1.0" standalone="no"?>
<!DOCTYPE svg PUBLIC "-//W3C//DTD SVG 20010904//EN"
 "http://www.w3.org/TR/2001/REC-SVG-20010904/DTD/svg10.dtd">
<svg version="1.0" xmlns="http://www.w3.org/2000/svg"
 width="1080.000000pt" height="1080.000000pt" viewBox="0 0 1080.000000 1080.000000"
 preserveAspectRatio="xMidYMid meet">
<metadata>
Created by potrace 1.16, written by Peter Selinger 2001-2019
</metadata>
<g transform="translate(0.000000,1080.000000) scale(0.100000,-0.100000)"
fill="#000000" stroke="none">
<path d="M0 5400 l0 -5400 5400 0 5400 0 0 5400 0 5400 -5400 0 -5400 0 0
-5400z m5875 4890 c33 -93 63 -170 67 -170 3 0 56 61 118 135 61 74 118 135
126 135 8 0 14 -10 14 -23 0 -30 -57 -408 -63 -413 -2 -2 -18 -1 -35 2 -38 8
-38 10 -13 147 9 53 15 97 12 96 -3 0 -44 -49 -90 -109 -52 -68 -88 -107 -97
-103 -7 3 -32 63 -56 134 -23 71 -45 123 -49 116 -3 -6 -14 -59 -24 -116 l-19
-103 -34 6 c-19 3 -36 7 -38 8 -1 2 17 95 42 208 24 113 44 208 44 213 0 4 8
7 18 7 14 0 30 -36 77 -170z m-1185 118 c33 -17 51 -35 67 -68 26 -51 79 -309
66 -321 -4 -4 -21 -9 -38 -11 -28 -3 -30 -1 -38 45 -11 55 -6 54 -130 31 -82
-15 -88 -18 -84 -38 20 -86 21 -83 -18 -90 -21 -4 -38 -6 -40 -4 -7 7 -55 271
-55 303 0 76 46 137 121 160 63 20 99 18 149 -7z m-495 -105 c42 -106 134
-388 127 -395 -4 -4 -73 24 -152 63 -80 39 -159 77 -176 84 l-32 13 44 -124
c24 -69 44 -127 44 -128 0 -9 -64 -26 -71 -19 -9 10 -139 383 -139 400 0 7 5
13 10 13 6 0 87 -38 180 -85 94 -47 170 -81 170 -77 0 5 -18 59 -40 121 -22
61 -40 118 -40 126 0 26 65 33 75 8z m2278 -2 c6 -6 -103 -393 -118 -418 0 -1
-18 3 -38 9 -31 10 -36 15 -31 32 4 12 31 100 61 196 29 96 56 181 58 189 5
13 51 8 68 -8z m260 -91 c4 -4 -22 -79 -58 -168 -36 -88 -65 -165 -65 -170 0
-4 42 -25 94 -46 l94 -38 -13 -32 c-7 -17 -17 -30 -22 -29 -31 10 -240 96
-247 103 -4 5 28 98 74 208 l82 201 26 -12 c15 -6 31 -14 35 -17z m-2989 -293
l95 -198 -35 -15 c-20 -8 -37 -14 -39 -12 -8 11 -186 391 -183 393 7 6 63 33
65 31 1 -1 45 -90 97 -199z m3356 128 c17 -9 30 -19 30 -24 0 -5 -19 -44 -43
-87 -24 -44 -62 -113 -85 -156 l-42 -76 87 -48 c49 -26 89 -48 91 -50 7 -5
-29 -65 -36 -61 -4 2 -59 33 -122 67 -63 35 -116 64 -118 65 -3 3 201 384 206
385 2 0 16 -7 32 -15z m-3628 -162 c91 -149 98 -166 98 -219 0 -80 -53 -142
-147 -170 -53 -16 -104 -7 -146 26 -22 17 -192 280 -185 284 2 1 15 10 30 19
15 9 29 17 32 17 2 0 39 -56 81 -125 42 -69 86 -132 98 -140 71 -49 181 30
157 113 -5 18 -41 84 -81 148 l-73 116 25 19 c13 10 29 19 35 19 6 0 40 -48
76 -107z m4115 -135 c118 -55 166 -193 108 -308 -47 -92 -143 -141 -238 -120
-198 42 -268 264 -125 396 70 65 161 77 255 32z m-4555 -174 c23 -16 56 -51
72 -77 25 -41 30 -58 29 -113 l0 -64 53 0 54 0 0 -35 0 -35 -73 0 c-68 0 -75
-2 -102 -30 -65 -68 -185 -91 -264 -51 -50 26 -107 91 -120 138 -25 89 -6 159
64 228 59 60 98 75 182 72 51 -2 71 -9 105 -33z m4930 -325 l-4 -194 44 41
c102 97 153 144 159 144 3 0 16 -11 29 -25 l23 -25 -159 -154 c-87 -84 -162
-152 -166 -149 -5 2 -8 93 -8 201 l0 197 -95 -95 -95 -95 -27 28 -28 29 154
149 c84 82 159 148 165 146 8 -3 10 -60 8 -198z m-5404 -83 c53 -34 228 -186
224 -194 -2 -4 -12 -18 -22 -31 l-17 -25 -42 34 c-24 18 -46 29 -50 24 -5 -5
-36 -41 -69 -80 l-61 -72 40 -31 39 -32 -21 -30 c-11 -17 -25 -29 -29 -27 -28
10 -230 195 -248 227 -36 64 -23 142 36 205 64 68 146 80 220 32z m5829 -217
c95 -46 142 -175 92 -255 -20 -33 -248 -214 -270 -214 -4 0 -17 13 -28 29
l-21 29 40 27 c22 15 40 31 40 35 0 14 -111 160 -121 160 -6 0 -26 -12 -46
-27 l-35 -27 -19 25 c-10 13 -19 29 -19 35 0 13 203 162 255 185 52 24 79 24
132 -2z m-6080 -268 l161 -93 -16 -29 c-10 -16 -21 -29 -25 -29 -5 0 -51 25
-103 56 -52 31 -96 55 -98 53 -2 -2 27 -55 64 -118 37 -63 66 -120 63 -127 -4
-10 -38 -12 -146 -7 l-142 5 102 -63 102 -63 -17 -27 c-9 -15 -21 -28 -27 -28
-5 -1 -90 51 -187 114 -229 150 -229 150 19 141 100 -4 183 -5 183 -1 0 3 -38
75 -85 159 -93 165 -102 204 -41 168 17 -10 104 -60 193 -111z m6407 -202 c47
-87 58 -132 45 -181 -11 -43 -64 -93 -113 -107 -32 -8 -90 -2 -114 13 -17 11
-45 -76 -33 -106 8 -22 6 -27 -15 -37 -36 -16 -42 -14 -59 19 -22 42 -19 73
15 136 29 54 29 57 13 87 -8 18 -17 34 -19 36 -2 2 -28 -11 -59 -28 l-55 -31
-18 36 c-10 22 -13 39 -7 41 6 2 89 46 185 98 96 52 180 94 185 95 6 0 28 -32
49 -71z m196 -415 c6 -14 10 -29 10 -33 0 -8 -376 -166 -394 -166 -5 0 -16 15
-23 33 -12 30 -12 33 9 41 13 5 100 41 193 80 94 39 176 70 183 71 7 0 17 -12
22 -26z m-870 -2664 l0 -2640 -2640 0 -2640 0 0 2640 0 2640 2640 0 2640 0 0
-2640z m-6114 2505 c76 -25 140 -47 142 -50 2 -2 -1 -19 -8 -39 l-11 -34 -45
15 c-26 9 -49 12 -53 7 -5 -5 -22 -50 -39 -100 l-30 -92 44 -12 c25 -7 47 -16
49 -20 6 -10 -15 -70 -25 -70 -4 0 -68 21 -141 46 -141 48 -189 76 -214 124
-41 79 8 221 89 256 51 22 98 16 242 -31z m7062 -132 c37 -27 71 -90 78 -146
8 -58 -23 -127 -69 -156 -46 -28 -307 -105 -318 -94 -6 6 -11 23 -12 38 -2 26
2 30 45 42 28 8 45 19 43 26 -2 7 -16 52 -30 100 -26 88 -27 89 -53 81 -55
-15 -74 -11 -85 19 -5 16 -6 31 -3 34 3 3 63 23 133 44 147 45 223 48 271 12z
m-7059 -358 c5 -6 -39 -249 -49 -266 -5 -7 -72 2 -219 32 l-213 42 7 36 c4 20
8 37 8 38 1 0 79 -14 172 -33 94 -18 175 -34 181 -34 6 0 19 45 29 101 l19
101 30 -6 c16 -4 32 -8 35 -11z"/>
<path d="M4573 10349 c-17 -5 -42 -22 -53 -37 -20 -24 -21 -35 -16 -97 4 -38
10 -73 15 -78 5 -5 51 0 102 10 l94 19 -2 47 c-4 66 -34 122 -74 136 -18 6
-32 11 -33 10 -1 0 -15 -5 -33 -10z"/>
<path d="M7420 9679 c-53 -30 -84 -81 -84 -138 0 -85 53 -142 138 -149 163
-13 231 218 86 290 -46 24 -97 22 -140 -3z"/>
<path d="M2865 9528 c-162 -35 -146 -272 22 -304 73 -14 155 47 168 125 5 33
2 51 -17 88 -37 75 -98 107 -173 91z"/>
<path d="M2394 9086 c-52 -52 -48 -92 17 -162 29 -30 57 -54 63 -53 6 0 40 35
75 77 l63 77 -33 28 c-91 78 -133 85 -185 33z"/>
<path d="M8285 8880 c-11 -4 -41 -23 -67 -42 l-46 -33 59 -79 c32 -44 61 -81
63 -84 3 -2 28 12 56 33 89 65 100 126 34 185 -35 30 -62 36 -99 20z"/>
<path d="M8568 8414 c-38 -19 -68 -40 -68 -48 0 -7 14 -32 30 -54 26 -37 35
-42 69 -42 45 0 91 36 91 72 0 27 -36 108 -47 108 -4 -1 -38 -17 -75 -36z"/>
<path d="M4480 7243 c-62 -6 -113 -27 -177 -71 -60 -42 -135 -72 -180 -72 -30
0 -29 -11 5 -42 45 -43 90 -53 171 -41 55 9 80 8 115 -2 84 -25 86 -29 86
-127 0 -74 -3 -87 -17 -91 -20 -6 -100 -22 -183 -38 -30 -6 -71 -15 -90 -20
-19 -4 -64 -16 -100 -25 -36 -8 -73 -20 -82 -25 -10 -5 -26 -9 -35 -9 -15 0
-111 -32 -178 -60 -11 -4 -51 -21 -90 -36 -117 -47 -274 -131 -390 -210 -61
-41 -114 -74 -118 -74 -3 0 -8 75 -9 168 l-3 167 -55 -3 c-72 -4 -117 -20
-158 -54 -47 -40 -105 -67 -158 -75 -56 -7 -65 -26 -30 -61 25 -26 31 -27 139
-28 185 0 227 -19 235 -103 l4 -48 -81 -89 c-108 -117 -174 -248 -189 -370
-25 -212 58 -412 247 -598 l91 -89 0 -168 c0 -96 -4 -169 -9 -169 -11 0 -151
151 -151 163 0 4 -11 25 -25 47 -14 22 -25 49 -25 60 0 11 -4 20 -10 20 -12 0
-13 -63 -2 -88 68 -141 87 -178 91 -182 3 -3 24 -27 45 -55 22 -27 50 -61 63
-74 22 -23 23 -31 23 -178 0 -149 -1 -153 -19 -143 -53 28 -189 216 -191 263
0 29 -20 19 -20 -10 1 -112 144 -331 294 -448 21 -16 47 -38 59 -47 11 -10 23
-18 27 -18 3 0 15 -8 26 -18 67 -62 368 -214 534 -268 25 -8 54 -19 65 -23 23
-9 99 -33 165 -51 25 -7 56 -16 70 -20 38 -13 146 -37 225 -50 113 -19 138
-31 149 -69 9 -31 12 -33 45 -27 63 10 67 23 38 118 -14 46 -38 121 -52 168
-49 165 -77 255 -86 278 -18 45 -11 59 34 70 102 26 177 42 240 51 37 6 97 15
135 21 37 5 145 14 240 20 318 18 708 -20 965 -93 39 -11 45 -26 28 -69 -5
-13 -21 -62 -35 -111 -22 -76 -57 -195 -87 -292 -5 -16 -16 -52 -24 -79 -19
-59 -10 -73 48 -83 35 -5 37 -4 43 26 8 38 23 47 100 60 73 13 187 37 234 50
128 34 160 43 205 57 28 8 59 19 70 24 11 5 43 16 70 25 28 9 64 22 80 30 17
7 53 22 80 33 112 44 325 161 363 199 8 7 23 18 35 25 12 6 55 38 95 72 62 51
96 87 181 192 5 6 24 40 43 75 39 73 62 145 56 180 -5 25 -5 25 -23 -23 -28
-76 -159 -238 -192 -238 -10 0 -13 32 -13 148 0 147 0 149 26 173 14 13 42 47
62 74 20 28 39 52 43 55 8 6 70 129 88 176 7 18 11 47 9 65 -3 29 -5 31 -12
14 -21 -54 -54 -114 -86 -155 -42 -56 -115 -122 -124 -113 -3 3 -6 78 -6 166
l0 159 89 86 c120 118 173 194 223 322 18 45 38 154 38 205 0 160 -88 344
-240 505 -40 41 -42 47 -36 88 11 78 53 96 233 96 108 1 114 2 139 28 36 35
26 54 -32 63 -53 8 -92 26 -150 71 -49 38 -84 51 -156 57 -44 4 -58 2 -62 -10
-3 -8 -6 -82 -6 -164 0 -114 -3 -149 -13 -149 -7 0 -47 25 -89 55 -42 30 -79
55 -82 55 -4 0 -23 11 -44 23 -60 38 -162 90 -237 121 -38 16 -74 33 -79 38
-6 4 -19 8 -31 8 -12 0 -25 4 -31 8 -5 5 -36 17 -69 27 -33 10 -64 21 -70 25
-5 4 -21 10 -35 13 -14 3 -68 17 -120 32 -100 28 -141 38 -230 54 -30 6 -78
15 -107 21 l-53 11 0 89 0 88 33 15 c67 32 114 38 176 26 49 -10 67 -10 101 1
37 12 90 53 90 70 0 3 -29 12 -65 19 -48 10 -82 25 -132 60 -73 51 -122 69
-193 73 l-45 3 -5 -215 -5 -215 -50 3 c-27 1 -79 7 -115 12 -212 31 -422 42
-765 37 -334 -4 -395 -8 -689 -47 -62 -8 -82 -7 -88 3 -4 6 -8 105 -8 220 0
160 -3 207 -12 205 -7 0 -29 -3 -48 -5z m1150 -583 c213 -10 462 -34 517 -49
15 -5 27 -13 26 -19 -2 -9 -97 -176 -146 -256 -7 -11 -26 -43 -43 -70 -17 -28
-34 -58 -37 -66 -4 -8 -51 -87 -104 -175 -88 -143 -101 -160 -123 -157 -76 9
-516 12 -575 4 -38 -5 -76 -7 -83 -4 -11 4 -117 175 -175 282 -11 19 -27 46
-36 60 -9 14 -21 34 -28 45 -6 11 -45 76 -86 145 -103 172 -117 199 -109 203
29 17 292 46 497 56 237 12 270 12 505 1z m-1113 -130 c13 -25 36 -62 49 -82
13 -21 24 -40 24 -42 0 -2 35 -62 78 -133 43 -70 81 -135 85 -143 4 -8 13 -24
19 -34 50 -77 98 -157 98 -164 0 -4 9 -18 20 -32 37 -47 28 -54 -77 -74 -96
-17 -131 -27 -263 -68 -67 -22 -107 -37 -174 -69 -22 -11 -43 -19 -48 -19 -4
0 -43 -23 -87 -51 l-80 -50 -68 40 c-98 59 -105 64 -140 88 -17 13 -34 23 -37
23 -3 0 -61 35 -129 78 -146 91 -142 89 -234 144 -40 24 -73 46 -73 51 0 4 -4
7 -10 7 -12 0 -150 88 -150 96 0 12 160 134 176 134 4 0 15 6 23 14 23 20 213
118 302 154 77 32 216 79 299 101 25 7 65 18 90 26 25 7 72 18 105 25 33 6 74
15 90 20 61 17 85 9 112 -40z m1881 39 c104 -23 139 -32 182 -44 25 -7 65 -18
90 -25 59 -17 189 -59 215 -69 11 -5 52 -21 90 -36 80 -31 234 -105 285 -137
19 -12 48 -29 63 -38 39 -21 156 -113 157 -122 0 -10 -171 -121 -325 -211 -11
-7 -41 -27 -68 -44 -26 -18 -49 -33 -52 -33 -2 0 -54 -31 -115 -70 -61 -38
-115 -70 -120 -70 -6 0 -10 -3 -10 -7 0 -8 -15 -17 -108 -70 l-43 -24 -77 49
c-42 27 -96 56 -119 65 -23 9 -61 25 -85 35 -41 18 -110 41 -223 75 -27 8 -94
23 -147 33 -54 10 -98 23 -98 29 0 6 28 58 63 116 35 58 66 111 70 119 4 8 17
31 30 51 24 39 186 308 202 336 6 10 21 37 34 61 27 46 35 48 109 31z m-3137
-591 c32 -17 282 -172 337 -209 23 -16 45 -29 47 -29 7 0 389 -242 404 -256
13 -12 12 -16 -2 -32 -9 -10 -28 -44 -42 -75 -56 -128 -24 -257 95 -375 52
-51 59 -62 41 -62 -18 0 -142 36 -206 60 -164 62 -349 150 -453 218 -69 44
-181 133 -215 171 -60 67 -126 176 -144 241 -15 57 -15 65 2 142 23 106 75
218 101 218 7 0 22 -6 35 -12z m4359 -55 c18 -36 41 -98 50 -137 14 -62 14
-78 2 -131 -32 -142 -129 -271 -299 -396 -47 -35 -199 -129 -209 -129 -2 0
-46 -20 -97 -44 -148 -70 -399 -157 -414 -143 -3 4 20 32 51 64 32 31 71 83
87 115 24 48 29 69 29 134 0 62 -5 86 -26 128 -14 28 -33 59 -42 69 -14 15
-14 19 -1 31 16 15 398 256 405 256 3 0 20 11 38 25 18 14 36 25 39 25 3 0 68
39 145 88 76 48 147 92 158 99 37 23 50 14 84 -54z m-4050 -996 c58 -29 142
-68 188 -86 l82 -33 0 -175 0 -174 -22 6 c-20 5 -53 18 -123 45 -58 23 -227
108 -272 137 l-53 33 0 168 c0 93 3 172 7 175 3 4 25 -4 47 -18 23 -14 88 -49
146 -78z m3860 -81 l0 -174 -64 -36 c-168 -94 -384 -185 -400 -168 -3 3 -6 78
-6 167 0 118 3 165 13 172 6 5 35 18 62 28 63 22 277 126 330 159 22 14 46 26
53 26 9 0 12 -41 12 -174z m-3378 -105 c142 -56 554 -130 908 -163 173 -16
729 -16 885 0 305 32 340 36 590 82 127 24 265 58 323 81 13 5 36 9 52 9 l30
0 0 -157 c0 -87 -4 -164 -9 -172 -5 -7 -28 -17 -52 -23 -24 -5 -60 -13 -79
-18 -67 -18 -265 -61 -330 -72 -80 -14 -120 -14 -185 0 -243 51 -271 56 -435
74 -133 15 -562 15 -700 0 -159 -17 -189 -23 -435 -74 -63 -14 -103 -13 -185
0 -172 29 -433 94 -456 113 -11 9 -14 44 -14 170 l0 159 35 0 c19 0 44 -4 57
-9z m-506 -308 c28 -17 95 -52 150 -78 54 -25 109 -51 122 -58 22 -10 22 -14
20 -141 -3 -143 -3 -142 -63 -117 -11 5 -51 22 -90 37 -90 36 -273 129 -297
150 -16 15 -18 34 -18 159 0 78 3 145 6 148 4 4 32 -11 63 -32 31 -21 79 -52
107 -68z m3884 -46 c0 -78 -4 -147 -8 -154 -10 -16 -214 -120 -307 -157 -38
-15 -79 -32 -90 -37 -11 -4 -29 -10 -40 -11 -19 -3 -20 3 -20 127 l0 130 130
65 c158 79 209 108 272 154 26 19 51 32 55 30 5 -3 8 -69 8 -147z m-3381 -176
c55 -18 73 -23 196 -57 33 -9 70 -20 83 -25 13 -5 36 -9 53 -9 16 0 39 -5 52
-12 12 -6 29 -14 37 -18 13 -6 25 -36 61 -156 5 -17 9 -42 9 -57 0 -30 -2 -30
-175 5 -55 11 -120 24 -145 29 -25 4 -70 15 -100 24 -30 9 -72 20 -92 24 -65
14 -68 21 -68 146 0 61 3 115 7 118 10 10 22 9 82 -12z m2791 -100 c0 -132 -3
-138 -68 -152 -20 -4 -62 -15 -92 -24 -30 -8 -89 -22 -130 -30 -41 -8 -106
-22 -145 -29 -38 -8 -87 -17 -109 -20 l-38 -5 5 37 c6 47 34 148 50 180 12 25
72 52 114 52 12 0 32 4 45 9 13 5 50 16 83 25 124 34 141 39 190 56 97 35 95
37 95 -99z"/>
<path d="M1702 7863 c-16 -6 -52 -76 -52 -100 0 -40 38 -81 95 -102 30 -12 61
-21 68 -21 7 0 26 39 41 88 16 48 30 92 33 98 8 23 -144 54 -185 37z"/>
<path d="M8808 7706 c-20 -6 -39 -14 -42 -17 -6 -6 42 -179 53 -192 11 -12
108 21 141 49 25 22 30 33 30 71 0 36 -6 50 -29 74 -24 24 -37 29 -73 28 -24
-1 -60 -6 -80 -13z"/>
</g>
</svg>
